<?xml version="1.0" encoding="utf-8"?>
<!-- Generator: Adobe Illustrator 23.0.1, SVG Export Plug-In . SVG Version: 6.00 Build 0)  -->
<svg version="1.1" id="Logo" xmlns="http://www.w3.org/2000/svg" xmlns:xlink="http://www.w3.org/1999/xlink" x="0px" y="0px"
	 viewBox="0 0 454.8 442.3" style="enable-background:new 0 0 454.8 442.3;" xml:space="preserve">
<style type="text/css">
	.st0{fill:#00934C;}
</style>
<path class="st0" d="M9.9,193.2c0.8-0.4,1.7-0.2,2.5-0.2c38.2,0,76.4,0,114.5,0c0.3,0,0.5,0,0.8,0c1.4-0.2,2.1,0.3,2.4,1.9
	c0.8,4,1.9,8,2.9,12c10.2,41.9,20.4,83.7,30.6,125.6c3.8,15.8,7.7,31.6,11.6,47.3c0.6,2.4,0.6,2.4,3.2,2.4c32.6,0,65.2,0,97.8,0
	c0.3,0,0.5,0,0.8,0c1.5,0.3,2.1-0.5,2.4-1.9c1-4.4,2.1-8.8,3.2-13.2c8.8-36.4,17.7-72.8,26.5-109.1c5-20.8,10.1-41.5,15.1-62.3
	c0.1-0.5,0.3-1,0.4-1.5c0.1-0.8,0.6-1.2,1.4-1.1c0.5,0,1,0,1.5,0c38.3,0,76.5,0,114.8,0c0.8,0,1.5,0,2.2,0c0.6,0.8,0,1.3-0.2,1.7
	c-9,18.9-18.1,37.8-27.1,56.7c-0.7,1.4-1.6,1.7-3,1.7c-12.5,0-25,0-37.5,0c-0.6,0-1.2,0-1.8,0c-1.2-0.1-1.6,0.5-1.9,1.6
	c-1,4.1-2.1,8.1-3.1,12.2c-12.2,47.5-24.4,95-36.6,142.5c-2.6,10.1-5.2,20.2-7.8,30.3c-0.8,3-0.4,2.6-3.3,2.6
	c-40.7,0-81.5,0-122.2,0c-22.3,0-44.7,0-67,0c-0.5,0-1-0.1-1.5,0c-1.3,0.2-1.8-0.4-2.1-1.6c-1.4-5.6-2.9-11.3-4.3-16.9
	c-11.2-43.6-22.4-87.3-33.6-130.9c-3.2-12.4-6.4-24.8-9.6-37.2c-0.1-0.5-0.3-1-0.4-1.5c-0.1-0.9-0.7-1.1-1.4-1.1c-0.6,0-1.2,0-1.8,0
	c-12.6,0-25.2,0-37.8,0c-1.8,0-2.7-0.5-3.5-2.2c-8.8-18.6-17.6-37.2-26.5-55.9C10.2,194.5,9.6,194,9.9,193.2z"/>
<path class="st0" d="M226.6,77.3c47.9,0,95.7,0,143.6,0c2.5,0,4.7-0.5,6.9-1.6c3.2-1.6,6.2-3.6,8.6-6.4c2.9-3.3,4.3-7.1,4.3-11.5
	c0-18.2,0-36.5,0-54.7c0-0.6,0-1.2,0-1.8c-0.1-1,0.3-1.5,1.3-1.4c0.5,0,1,0,1.5,0c19.7,0,39.4,0,59.1,0c0.3,0,0.7,0,1,0
	c1.8,0,1.8,0,1.9,1.8c0,0.5,0,1,0,1.5c0,16.2-0.1,32.4,0.1,48.5c0.1,5.8-0.7,11.4-2.2,17c-4.3,16-11.1,30.7-22.2,43.2
	c-12.1,13.7-27.2,22.1-45.1,25.7c-8,1.6-16.1,1.9-24.2,2.3c-12.7,0.6-25.3,0.8-38,1c-30,0.6-60.1,0.4-90.1,0.3
	c-24.1-0.1-48.1-0.3-72.2-0.6c-23.3-0.3-46.6-0.7-69.8-1.1c-4.6-0.1-9.3,0.2-13.8-0.5c-12.9-2-24.7-6.7-35.7-13.6
	C19.1,111.3,5.8,91,1,65c-0.7-3.7-1-7.4-1-11.2C0.1,37.1,0,20.4,0,3.7c0-0.5,0-1,0-1.5C0-0.2,0,0,2.3,0C19.2,0,36,0,52.9,0
	c3.3,0,6.5,0,9.8,0c2.3,0,2.2-0.1,2.2,2.3c0,17.8,0,35.6,0,53.4c0,5.7,1.8,10.8,4.9,15.4c2.6,3.9,6.2,6,10.9,6.2
	c1.5,0,2.9,0.1,4.4,0.1C132.3,77.3,179.4,77.3,226.6,77.3z"/>
</svg>
