<?xml version="1.0" encoding="utf-8"?>
<!-- Generator: Adobe Illustrator 23.0.1, SVG Export Plug-In . SVG Version: 6.00 Build 0)  -->
<svg version="1.1" id="Logo" xmlns="http://www.w3.org/2000/svg" xmlns:xlink="http://www.w3.org/1999/xlink" x="0px" y="0px"
	 viewBox="0 0 378.7 444.6" style="enable-background:new 0 0 378.7 444.6;" xml:space="preserve">
<style type="text/css">
	.st0{fill:#00934C;}
</style>
<g>
	<path class="st0" d="M26.5,144.9c0.6-0.3,1.3-0.2,1.9-0.2c28.6,0,57.2,0,85.9,0c0.2,0,0.4,0,0.6,0c1.1-0.1,1.6,0.2,1.8,1.4
		c0.6,3,1.4,6,2.2,9c7.6,31.4,15.3,62.8,22.9,94.1c2.9,11.8,5.8,23.7,8.7,35.5c0.4,1.8,0.4,1.8,2.4,1.8c24.5,0,48.9,0,73.4,0
		c0.2,0,0.4,0,0.6,0c1.1,0.2,1.6-0.4,1.8-1.4c0.7-3.3,1.6-6.6,2.4-9.9c6.6-27.3,13.2-54.6,19.9-81.8c3.8-15.6,7.6-31.1,11.3-46.7
		c0.1-0.4,0.2-0.7,0.3-1.1c0.1-0.6,0.4-0.9,1-0.9c0.4,0,0.8,0,1.2,0c28.7,0,57.4,0,86.1,0c0.6,0,1.1,0,1.6,0c0.5,0.6,0,1-0.1,1.3
		c-6.8,14.2-13.6,28.3-20.3,42.5c-0.5,1.1-1.2,1.3-2.2,1.3c-9.4,0-18.7,0-28.1,0c-0.4,0-0.9,0-1.3,0c-0.9-0.1-1.2,0.4-1.4,1.2
		c-0.7,3.1-1.5,6.1-2.3,9.1c-9.2,35.6-18.3,71.2-27.5,106.9c-1.9,7.6-3.9,15.1-5.8,22.7c-0.6,2.3-0.3,2-2.5,2c-30.5,0-61.1,0-91.6,0
		c-16.8,0-33.5,0-50.3,0c-0.4,0-0.8,0-1.2,0c-0.9,0.1-1.3-0.3-1.5-1.2c-1-4.2-2.2-8.4-3.2-12.7c-8.4-32.7-16.8-65.4-25.2-98.1
		c-2.4-9.3-4.8-18.6-7.2-27.9c-0.1-0.4-0.2-0.7-0.3-1.1c-0.1-0.7-0.5-0.8-1.1-0.8c-0.4,0-0.9,0-1.3,0c-9.4,0-18.9,0-28.3,0
		c-1.3,0-2-0.4-2.6-1.6c-6.6-14-13.2-27.9-19.8-41.9C26.6,145.9,26.2,145.5,26.5,144.9z"/>
	<path class="st0" d="M188.9,58c35.9,0,71.8,0,107.6,0c1.9,0,3.5-0.4,5.2-1.2c2.4-1.2,4.7-2.7,6.4-4.8c2.1-2.5,3.2-5.3,3.2-8.6
		c0-13.7,0-27.3,0-41c0-0.4,0-0.9,0-1.3c0-0.7,0.2-1.1,1-1c0.4,0,0.8,0,1.2,0c14.8,0,29.5,0,44.3,0c0.3,0,0.5,0,0.8,0
		c1.4,0,1.4,0,1.4,1.3c0,0.4,0,0.8,0,1.2c0,12.1-0.1,24.3,0,36.4c0,4.3-0.5,8.6-1.6,12.7c-3.2,12-8.4,23-16.6,32.4
		c-9.1,10.3-20.4,16.6-33.8,19.2c-6,1.2-12.1,1.4-18.2,1.7c-9.5,0.4-19,0.6-28.5,0.8c-22.5,0.4-45.1,0.3-67.6,0.2
		c-18,0-36.1-0.3-54.1-0.5c-17.5-0.2-34.9-0.5-52.4-0.9c-3.5-0.1-6.9,0.1-10.4-0.4c-9.6-1.5-18.5-5-26.8-10.2
		C33.3,83.5,23.4,68.3,19.8,48.8C19.3,46,19,43.2,19,40.4c0-12.5,0-25,0-37.5c0-0.4,0-0.8,0-1.2c0-1.8,0-1.6,1.7-1.6
		c12.6,0,25.3,0,37.9,0c2.4,0,4.9,0,7.3,0c1.8,0,1.6,0,1.6,1.7c0,13.3,0,26.7,0,40c0,4.2,1.4,8.1,3.7,11.5c2,2.9,4.7,4.5,8.2,4.6
		c1.1,0,2.2,0,3.3,0C118.2,58,153.5,58,188.9,58z"/>
</g>
</svg>
